<svg enable-background="new 0 0 50 50" height="30" viewBox="0 0 50 50" width="30" xmlns="http://www.w3.org/2000/svg"><circle cx="25" cy="25" fill="none" r="24" stroke="#fff" stroke-linecap="round" stroke-miterlimit="10" stroke-width="2"/><path fill="none" d="M0 0h50v50H0z"/><path d="M29.933 35.528c-.146-1.612-.09-2.737-.09-4.21.73-.383 2.038-2.825 2.26-4.888.573-.047 1.478-.607 1.743-2.818.143-1.187-.425-1.855-.77-2.065.933-2.81 2.873-11.5-3.59-12.397-.664-1.168-2.367-1.76-4.58-1.76-8.854.164-9.922 6.687-7.98 14.157-.346.21-.914.878-.772 2.065.266 2.21 1.17 2.77 1.744 2.818.22 2.062 1.58 4.505 2.312 4.888 0 1.473.055 2.598-.09 4.21-1.262 3.39-7.738 3.655-11.474 6.924 3.906 3.933 10.236 6.746 16.916 6.746s14.532-5.274 15.84-6.713c-3.714-3.3-10.205-3.555-11.47-6.957z" fill="none" stroke="#fff" stroke-linecap="round" stroke-miterlimit="10" stroke-width="2"/></svg>